<svg width="322" height="242" viewBox="0 0 322 242" fill="none" xmlns="http://www.w3.org/2000/svg">
<g clip-path="url(#clip0_122_161)">
<path opacity="0.89" d="M250.5 38.7424L201.15 0L179.005 21.9256L151.662 2.8255C122.044 29.2057 93.5622 55.9604 81.533 73.2124C49.3521 127.366 100.748 153.581 148.68 142.491C168.396 137.562 183.028 126.634 199.92 109.36C176.469 123.16 164.109 132.409 148.062 132.363C64.1391 132.12 96.6115 32.9649 203.473 42.504L192.129 32.4154C193.648 27.8197 212.821 29.8209 250.5 38.7424Z" fill="white"/>
</g>
<path d="M6.57715 197H2.18262V175.672H6.57715V197ZM14.2822 181.15L14.4141 182.981C15.5469 181.565 17.0654 180.857 18.9697 180.857C20.6494 180.857 21.8994 181.351 22.7197 182.337C23.54 183.323 23.96 184.798 23.9795 186.761V197H19.7461V186.863C19.7461 185.965 19.5508 185.315 19.1602 184.915C18.7695 184.505 18.1201 184.3 17.2119 184.3C16.0205 184.3 15.127 184.808 14.5312 185.823V197H10.2979V181.15H14.2822ZM28.3594 197V184.256H26.001V181.15H28.3594V179.803C28.3594 178.025 28.8672 176.648 29.8828 175.672C30.9082 174.686 32.3389 174.192 34.1748 174.192C34.7607 174.192 35.4785 174.29 36.3281 174.485L36.2842 177.767C35.9326 177.679 35.5029 177.635 34.9951 177.635C33.4033 177.635 32.6074 178.382 32.6074 179.876V181.15H35.7568V184.256H32.6074V197H28.3594ZM37.2949 188.929C37.2949 187.356 37.5977 185.955 38.2031 184.725C38.8086 183.494 39.6777 182.542 40.8105 181.868C41.9531 181.194 43.2764 180.857 44.7803 180.857C46.9189 180.857 48.6621 181.512 50.0098 182.82C51.3672 184.129 52.124 185.906 52.2803 188.152L52.3096 189.236C52.3096 191.668 51.6309 193.621 50.2734 195.096C48.916 196.561 47.0947 197.293 44.8096 197.293C42.5244 197.293 40.6982 196.561 39.3311 195.096C37.9736 193.631 37.2949 191.639 37.2949 189.119V188.929ZM41.5283 189.236C41.5283 190.74 41.8115 191.893 42.3779 192.693C42.9443 193.484 43.7549 193.88 44.8096 193.88C45.835 193.88 46.6357 193.489 47.2119 192.708C47.7881 191.917 48.0762 190.657 48.0762 188.929C48.0762 187.454 47.7881 186.312 47.2119 185.501C46.6357 184.69 45.8252 184.285 44.7803 184.285C43.7451 184.285 42.9443 184.69 42.3779 185.501C41.8115 186.302 41.5283 187.547 41.5283 189.236ZM63.8232 185.12C63.2471 185.042 62.7393 185.003 62.2998 185.003C60.6982 185.003 59.6484 185.545 59.1504 186.629V197H54.917V181.15H58.916L59.0332 183.04C59.8828 181.585 61.0596 180.857 62.5635 180.857C63.0322 180.857 63.4717 180.921 63.8818 181.048L63.8232 185.12ZM69.8438 181.15L69.9756 182.923C71.0986 181.546 72.6172 180.857 74.5312 180.857C76.5723 180.857 77.9736 181.663 78.7354 183.274C79.8486 181.663 81.4355 180.857 83.4961 180.857C85.2148 180.857 86.4941 181.36 87.334 182.366C88.1738 183.362 88.5938 184.866 88.5938 186.878V197H84.3457V186.893C84.3457 185.994 84.1699 185.34 83.8184 184.93C83.4668 184.51 82.8467 184.3 81.958 184.3C80.6885 184.3 79.8096 184.905 79.3213 186.116L79.3359 197H75.1025V186.907C75.1025 185.989 74.9219 185.325 74.5605 184.915C74.1992 184.505 73.584 184.3 72.7148 184.3C71.5137 184.3 70.6445 184.798 70.1074 185.794V197H65.874V181.15H69.8438ZM101.045 197C100.85 196.619 100.708 196.146 100.62 195.579C99.5947 196.722 98.2617 197.293 96.6211 197.293C95.0684 197.293 93.7793 196.844 92.7539 195.945C91.7383 195.047 91.2305 193.914 91.2305 192.547C91.2305 190.867 91.8506 189.578 93.0908 188.68C94.3408 187.781 96.1426 187.327 98.4961 187.317H100.444V186.409C100.444 185.677 100.254 185.091 99.873 184.651C99.502 184.212 98.9111 183.992 98.1006 183.992C97.3877 183.992 96.8262 184.163 96.416 184.505C96.0156 184.847 95.8154 185.315 95.8154 185.911H91.582C91.582 184.993 91.8652 184.144 92.4316 183.362C92.998 182.581 93.7988 181.971 94.834 181.531C95.8691 181.082 97.0312 180.857 98.3203 180.857C100.273 180.857 101.821 181.351 102.964 182.337C104.116 183.313 104.692 184.69 104.692 186.468V193.338C104.702 194.842 104.912 195.979 105.322 196.751V197H101.045ZM97.5439 194.056C98.1689 194.056 98.7451 193.919 99.2725 193.646C99.7998 193.362 100.19 192.986 100.444 192.518V189.793H98.8623C96.7432 189.793 95.6152 190.525 95.4785 191.99L95.4639 192.239C95.4639 192.767 95.6494 193.201 96.0205 193.543C96.3916 193.885 96.8994 194.056 97.5439 194.056ZM113.013 177.254V181.15H115.723V184.256H113.013V192.166C113.013 192.752 113.125 193.172 113.35 193.426C113.574 193.68 114.004 193.807 114.639 193.807C115.107 193.807 115.522 193.772 115.884 193.704V196.912C115.054 197.166 114.199 197.293 113.32 197.293C110.352 197.293 108.838 195.794 108.779 192.796V184.256H106.465V181.15H108.779V177.254H113.013ZM122.549 197H118.301V181.15H122.549V197ZM118.052 177.049C118.052 176.414 118.262 175.892 118.682 175.481C119.111 175.071 119.692 174.866 120.425 174.866C121.147 174.866 121.724 175.071 122.153 175.481C122.583 175.892 122.798 176.414 122.798 177.049C122.798 177.693 122.578 178.221 122.139 178.631C121.709 179.041 121.138 179.246 120.425 179.246C119.712 179.246 119.136 179.041 118.696 178.631C118.267 178.221 118.052 177.693 118.052 177.049ZM125.391 188.929C125.391 187.356 125.693 185.955 126.299 184.725C126.904 183.494 127.773 182.542 128.906 181.868C130.049 181.194 131.372 180.857 132.876 180.857C135.015 180.857 136.758 181.512 138.105 182.82C139.463 184.129 140.22 185.906 140.376 188.152L140.405 189.236C140.405 191.668 139.727 193.621 138.369 195.096C137.012 196.561 135.19 197.293 132.905 197.293C130.62 197.293 128.794 196.561 127.427 195.096C126.069 193.631 125.391 191.639 125.391 189.119V188.929ZM129.624 189.236C129.624 190.74 129.907 191.893 130.474 192.693C131.04 193.484 131.851 193.88 132.905 193.88C133.931 193.88 134.731 193.489 135.308 192.708C135.884 191.917 136.172 190.657 136.172 188.929C136.172 187.454 135.884 186.312 135.308 185.501C134.731 184.69 133.921 184.285 132.876 184.285C131.841 184.285 131.04 184.69 130.474 185.501C129.907 186.302 129.624 187.547 129.624 189.236ZM146.909 181.15L147.041 182.981C148.174 181.565 149.692 180.857 151.597 180.857C153.276 180.857 154.526 181.351 155.347 182.337C156.167 183.323 156.587 184.798 156.606 186.761V197H152.373V186.863C152.373 185.965 152.178 185.315 151.787 184.915C151.396 184.505 150.747 184.3 149.839 184.3C148.647 184.3 147.754 184.808 147.158 185.823V197H142.925V181.15H146.909ZM182.754 179.231H176.221V197H171.826V179.231H165.381V175.672H182.754V179.231ZM190.972 197.293C188.647 197.293 186.753 196.58 185.288 195.154C183.833 193.729 183.105 191.829 183.105 189.456V189.046C183.105 187.454 183.413 186.033 184.028 184.783C184.644 183.523 185.513 182.557 186.636 181.883C187.769 181.199 189.058 180.857 190.503 180.857C192.671 180.857 194.375 181.541 195.615 182.908C196.865 184.275 197.49 186.214 197.49 188.724V190.452H187.397C187.534 191.487 187.944 192.317 188.628 192.942C189.321 193.567 190.195 193.88 191.25 193.88C192.881 193.88 194.155 193.289 195.073 192.107L197.153 194.437C196.519 195.335 195.659 196.038 194.575 196.546C193.491 197.044 192.29 197.293 190.972 197.293ZM190.488 184.285C189.648 184.285 188.965 184.568 188.438 185.135C187.92 185.701 187.588 186.512 187.441 187.566H193.33V187.229C193.311 186.292 193.057 185.569 192.568 185.062C192.08 184.544 191.387 184.285 190.488 184.285ZM206.499 193.88C207.28 193.88 207.915 193.665 208.403 193.235C208.892 192.806 209.146 192.234 209.165 191.521H213.135C213.125 192.596 212.832 193.582 212.256 194.48C211.68 195.369 210.889 196.062 209.883 196.561C208.887 197.049 207.783 197.293 206.572 197.293C204.307 197.293 202.52 196.575 201.211 195.14C199.902 193.694 199.248 191.702 199.248 189.163V188.885C199.248 186.443 199.897 184.495 201.196 183.04C202.495 181.585 204.277 180.857 206.543 180.857C208.525 180.857 210.112 181.424 211.304 182.557C212.505 183.68 213.115 185.179 213.135 187.054H209.165C209.146 186.233 208.892 185.569 208.403 185.062C207.915 184.544 207.271 184.285 206.47 184.285C205.483 184.285 204.736 184.646 204.229 185.369C203.73 186.082 203.481 187.244 203.481 188.855V189.295C203.481 190.926 203.73 192.098 204.229 192.811C204.727 193.523 205.483 193.88 206.499 193.88ZM219.683 182.879C220.806 181.531 222.217 180.857 223.916 180.857C227.354 180.857 229.097 182.854 229.146 186.849V197H224.912V186.966C224.912 186.058 224.717 185.389 224.326 184.959C223.936 184.52 223.286 184.3 222.378 184.3C221.138 184.3 220.239 184.778 219.683 185.735V197H215.449V174.5H219.683V182.879ZM236.235 181.15L236.367 182.981C237.5 181.565 239.019 180.857 240.923 180.857C242.603 180.857 243.853 181.351 244.673 182.337C245.493 183.323 245.913 184.798 245.933 186.761V197H241.699V186.863C241.699 185.965 241.504 185.315 241.113 184.915C240.723 184.505 240.073 184.3 239.165 184.3C237.974 184.3 237.08 184.808 236.484 185.823V197H232.251V181.15H236.235ZM248.496 188.929C248.496 187.356 248.799 185.955 249.404 184.725C250.01 183.494 250.879 182.542 252.012 181.868C253.154 181.194 254.478 180.857 255.981 180.857C258.12 180.857 259.863 181.512 261.211 182.82C262.568 184.129 263.325 185.906 263.481 188.152L263.511 189.236C263.511 191.668 262.832 193.621 261.475 195.096C260.117 196.561 258.296 197.293 256.011 197.293C253.726 197.293 251.899 196.561 250.532 195.096C249.175 193.631 248.496 191.639 248.496 189.119V188.929ZM252.729 189.236C252.729 190.74 253.013 191.893 253.579 192.693C254.146 193.484 254.956 193.88 256.011 193.88C257.036 193.88 257.837 193.489 258.413 192.708C258.989 191.917 259.277 190.657 259.277 188.929C259.277 187.454 258.989 186.312 258.413 185.501C257.837 184.69 257.026 184.285 255.981 184.285C254.946 184.285 254.146 184.69 253.579 185.501C253.013 186.302 252.729 187.547 252.729 189.236ZM270.586 197H266.338V174.5H270.586V197ZM273.428 188.929C273.428 187.356 273.73 185.955 274.336 184.725C274.941 183.494 275.811 182.542 276.943 181.868C278.086 181.194 279.409 180.857 280.913 180.857C283.052 180.857 284.795 181.512 286.143 182.82C287.5 184.129 288.257 185.906 288.413 188.152L288.442 189.236C288.442 191.668 287.764 193.621 286.406 195.096C285.049 196.561 283.228 197.293 280.942 197.293C278.657 197.293 276.831 196.561 275.464 195.096C274.106 193.631 273.428 191.639 273.428 189.119V188.929ZM277.661 189.236C277.661 190.74 277.944 191.893 278.511 192.693C279.077 193.484 279.888 193.88 280.942 193.88C281.968 193.88 282.769 193.489 283.345 192.708C283.921 191.917 284.209 190.657 284.209 188.929C284.209 187.454 283.921 186.312 283.345 185.501C282.769 184.69 281.958 184.285 280.913 184.285C279.878 184.285 279.077 184.69 278.511 185.501C277.944 186.302 277.661 187.547 277.661 189.236ZM290.435 188.958C290.435 186.526 291.011 184.568 292.163 183.084C293.325 181.6 294.888 180.857 296.851 180.857C298.589 180.857 299.941 181.453 300.908 182.645L301.084 181.15H304.922V196.473C304.922 197.859 304.604 199.065 303.97 200.091C303.345 201.116 302.461 201.897 301.318 202.435C300.176 202.972 298.838 203.24 297.305 203.24C296.143 203.24 295.01 203.006 293.906 202.537C292.803 202.078 291.968 201.482 291.401 200.75L293.276 198.172C294.331 199.354 295.61 199.944 297.114 199.944C298.237 199.944 299.111 199.642 299.736 199.036C300.361 198.44 300.674 197.591 300.674 196.487V195.638C299.697 196.741 298.413 197.293 296.821 197.293C294.917 197.293 293.374 196.551 292.192 195.066C291.021 193.572 290.435 191.595 290.435 189.134V188.958ZM294.668 189.266C294.668 190.701 294.956 191.829 295.532 192.649C296.108 193.46 296.899 193.865 297.905 193.865C299.194 193.865 300.117 193.382 300.674 192.415V185.75C300.107 184.783 299.194 184.3 297.935 184.3C296.919 184.3 296.118 184.715 295.532 185.545C294.956 186.375 294.668 187.615 294.668 189.266ZM314.106 191.009L317.036 181.15H321.577L315.205 199.461L314.854 200.296C313.906 202.366 312.344 203.401 310.166 203.401C309.551 203.401 308.926 203.309 308.291 203.123V199.915L308.936 199.93C309.736 199.93 310.332 199.808 310.723 199.563C311.123 199.319 311.436 198.914 311.66 198.348L312.158 197.044L306.606 181.15H311.162L314.106 191.009Z" fill="white"/>
<path d="M1.98047 236V218.938H6.79688C8.28125 218.938 9.59375 219.266 10.7344 219.922C11.875 220.578 12.7539 221.512 13.3711 222.723C13.9961 223.934 14.3125 225.324 14.3203 226.895V227.984C14.3203 229.594 14.0078 231.004 13.3828 232.215C12.7656 233.426 11.8789 234.355 10.7227 235.004C9.57422 235.652 8.23438 235.984 6.70312 236H1.98047ZM4.23047 220.789V234.16H6.59766C8.33203 234.16 9.67969 233.621 10.6406 232.543C11.6094 231.465 12.0938 229.93 12.0938 227.938V226.941C12.0938 225.004 11.6367 223.5 10.7227 222.43C9.81641 221.352 8.52734 220.805 6.85547 220.789H4.23047ZM22.6523 236.234C20.9336 236.234 19.5352 235.672 18.457 234.547C17.3789 233.414 16.8398 231.902 16.8398 230.012V229.613C16.8398 228.355 17.0781 227.234 17.5547 226.25C18.0391 225.258 18.7109 224.484 19.5703 223.93C20.4375 223.367 21.375 223.086 22.3828 223.086C24.0312 223.086 25.3125 223.629 26.2266 224.715C27.1406 225.801 27.5977 227.355 27.5977 229.379V230.281H19.0078C19.0391 231.531 19.4023 232.543 20.0977 233.316C20.8008 234.082 21.6914 234.465 22.7695 234.465C23.5352 234.465 24.1836 234.309 24.7148 233.996C25.2461 233.684 25.7109 233.27 26.1094 232.754L27.4336 233.785C26.3711 235.418 24.7773 236.234 22.6523 236.234ZM22.3828 224.867C21.5078 224.867 20.7734 225.188 20.1797 225.828C19.5859 226.461 19.2188 227.352 19.0781 228.5H25.4297V228.336C25.3672 227.234 25.0703 226.383 24.5391 225.781C24.0078 225.172 23.2891 224.867 22.3828 224.867ZM40.8281 229.801C40.8281 231.73 40.3867 233.285 39.5039 234.465C38.6211 235.645 37.4258 236.234 35.918 236.234C34.3789 236.234 33.168 235.746 32.2852 234.77V240.875H30.1172V223.32H32.0977L32.2031 224.727C33.0859 223.633 34.3125 223.086 35.8828 223.086C37.4062 223.086 38.6094 223.66 39.4922 224.809C40.3828 225.957 40.8281 227.555 40.8281 229.602V229.801ZM38.6602 229.555C38.6602 228.125 38.3555 226.996 37.7461 226.168C37.1367 225.34 36.3008 224.926 35.2383 224.926C33.9258 224.926 32.9414 225.508 32.2852 226.672V232.73C32.9336 233.887 33.9258 234.465 35.2617 234.465C36.3008 234.465 37.125 234.055 37.7344 233.234C38.3516 232.406 38.6602 231.18 38.6602 229.555ZM51.4219 236C51.2969 235.75 51.1953 235.305 51.1172 234.664C50.1094 235.711 48.9062 236.234 47.5078 236.234C46.2578 236.234 45.2305 235.883 44.4258 235.18C43.6289 234.469 43.2305 233.57 43.2305 232.484C43.2305 231.164 43.7305 230.141 44.7305 229.414C45.7383 228.68 47.1523 228.312 48.9727 228.312H51.082V227.316C51.082 226.559 50.8555 225.957 50.4023 225.512C49.9492 225.059 49.2812 224.832 48.3984 224.832C47.625 224.832 46.9766 225.027 46.4531 225.418C45.9297 225.809 45.668 226.281 45.668 226.836H43.4883C43.4883 226.203 43.7109 225.594 44.1562 225.008C44.6094 224.414 45.2188 223.945 45.9844 223.602C46.7578 223.258 47.6055 223.086 48.5273 223.086C49.9883 223.086 51.1328 223.453 51.9609 224.188C52.7891 224.914 53.2188 225.918 53.25 227.199V233.035C53.25 234.199 53.3984 235.125 53.6953 235.812V236H51.4219ZM47.8242 234.348C48.5039 234.348 49.1484 234.172 49.7578 233.82C50.3672 233.469 50.8086 233.012 51.082 232.449V229.848H49.3828C46.7266 229.848 45.3984 230.625 45.3984 232.18C45.3984 232.859 45.625 233.391 46.0781 233.773C46.5312 234.156 47.1133 234.348 47.8242 234.348ZM62.7773 225.266C62.4492 225.211 62.0938 225.184 61.7109 225.184C60.2891 225.184 59.3242 225.789 58.8164 227V236H56.6484V223.32H58.7578L58.793 224.785C59.5039 223.652 60.5117 223.086 61.8164 223.086C62.2383 223.086 62.5586 223.141 62.7773 223.25V225.266ZM68.3086 220.25V223.32H70.6758V224.996H68.3086V232.859C68.3086 233.367 68.4141 233.75 68.625 234.008C68.8359 234.258 69.1953 234.383 69.7031 234.383C69.9531 234.383 70.2969 234.336 70.7344 234.242V236C70.1641 236.156 69.6094 236.234 69.0703 236.234C68.1016 236.234 67.3711 235.941 66.8789 235.355C66.3867 234.77 66.1406 233.938 66.1406 232.859V224.996H63.832V223.32H66.1406V220.25H68.3086ZM75.2578 223.32L75.3164 224.727C76.2461 223.633 77.5 223.086 79.0781 223.086C80.8516 223.086 82.0586 223.766 82.6992 225.125C83.1211 224.516 83.668 224.023 84.3398 223.648C85.0195 223.273 85.8203 223.086 86.7422 223.086C89.5234 223.086 90.9375 224.559 90.9844 227.504V236H88.8164V227.633C88.8164 226.727 88.6094 226.051 88.1953 225.605C87.7812 225.152 87.0859 224.926 86.1094 224.926C85.3047 224.926 84.6367 225.168 84.1055 225.652C83.5742 226.129 83.2656 226.773 83.1797 227.586V236H81V227.691C81 225.848 80.0977 224.926 78.293 224.926C76.8711 224.926 75.8984 225.531 75.375 226.742V236H73.207V223.32H75.2578ZM99.5273 236.234C97.8086 236.234 96.4102 235.672 95.332 234.547C94.2539 233.414 93.7148 231.902 93.7148 230.012V229.613C93.7148 228.355 93.9531 227.234 94.4297 226.25C94.9141 225.258 95.5859 224.484 96.4453 223.93C97.3125 223.367 98.25 223.086 99.2578 223.086C100.906 223.086 102.188 223.629 103.102 224.715C104.016 225.801 104.473 227.355 104.473 229.379V230.281H95.8828C95.9141 231.531 96.2773 232.543 96.9727 233.316C97.6758 234.082 98.5664 234.465 99.6445 234.465C100.41 234.465 101.059 234.309 101.59 233.996C102.121 233.684 102.586 233.27 102.984 232.754L104.309 233.785C103.246 235.418 101.652 236.234 99.5273 236.234ZM99.2578 224.867C98.3828 224.867 97.6484 225.188 97.0547 225.828C96.4609 226.461 96.0938 227.352 95.9531 228.5H102.305V228.336C102.242 227.234 101.945 226.383 101.414 225.781C100.883 225.172 100.164 224.867 99.2578 224.867ZM109.043 223.32L109.113 224.914C110.082 223.695 111.348 223.086 112.91 223.086C115.59 223.086 116.941 224.598 116.965 227.621V236H114.797V227.609C114.789 226.695 114.578 226.02 114.164 225.582C113.758 225.145 113.121 224.926 112.254 224.926C111.551 224.926 110.934 225.113 110.402 225.488C109.871 225.863 109.457 226.355 109.16 226.965V236H106.992V223.32H109.043ZM123.176 220.25V223.32H125.543V224.996H123.176V232.859C123.176 233.367 123.281 233.75 123.492 234.008C123.703 234.258 124.062 234.383 124.57 234.383C124.82 234.383 125.164 234.336 125.602 234.242V236C125.031 236.156 124.477 236.234 123.938 236.234C122.969 236.234 122.238 235.941 121.746 235.355C121.254 234.77 121.008 233.938 121.008 232.859V224.996H118.699V223.32H121.008V220.25H123.176Z" fill="white"/>
<defs>
<clipPath id="clip0_122_161">
<rect width="179" height="145" fill="white" transform="translate(71.5)"/>
</clipPath>
</defs>
</svg>
