<svg width="462" height="145" viewBox="0 0 462 145" fill="none" xmlns="http://www.w3.org/2000/svg">
<g clip-path="url(#clip0_122_161)">
<path opacity="0.89" d="M179 38.7424L129.65 0L107.504 21.9256L80.162 2.8255C50.5437 29.2057 22.062 55.9604 10.0328 73.2124C-22.148 127.366 29.2479 153.581 77.1794 142.491C96.8961 137.562 111.527 126.634 128.42 109.36C104.969 123.16 92.6088 132.409 76.5616 132.363C-7.36111 132.12 25.1113 32.9649 131.973 42.504L120.628 32.4154C122.148 27.8197 141.321 29.8209 179 38.7424Z" fill="white"/>
</g>
<path d="M146.577 69H142.183V47.6719H146.577V69ZM154.282 53.1504L154.414 54.9814C155.547 53.5654 157.065 52.8574 158.97 52.8574C160.649 52.8574 161.899 53.3506 162.72 54.3369C163.54 55.3232 163.96 56.7979 163.979 58.7607V69H159.746V58.8633C159.746 57.9648 159.551 57.3154 159.16 56.915C158.77 56.5049 158.12 56.2998 157.212 56.2998C156.021 56.2998 155.127 56.8076 154.531 57.8232V69H150.298V53.1504H154.282ZM168.359 69V56.2559H166.001V53.1504H168.359V51.8027C168.359 50.0254 168.867 48.6484 169.883 47.6719C170.908 46.6855 172.339 46.1924 174.175 46.1924C174.761 46.1924 175.479 46.29 176.328 46.4854L176.284 49.7666C175.933 49.6787 175.503 49.6348 174.995 49.6348C173.403 49.6348 172.607 50.3818 172.607 51.876V53.1504H175.757V56.2559H172.607V69H168.359ZM177.295 60.9287C177.295 59.3564 177.598 57.9551 178.203 56.7246C178.809 55.4941 179.678 54.542 180.811 53.8682C181.953 53.1943 183.276 52.8574 184.78 52.8574C186.919 52.8574 188.662 53.5117 190.01 54.8203C191.367 56.1289 192.124 57.9062 192.28 60.1523L192.31 61.2363C192.31 63.668 191.631 65.6211 190.273 67.0957C188.916 68.5605 187.095 69.293 184.81 69.293C182.524 69.293 180.698 68.5605 179.331 67.0957C177.974 65.6309 177.295 63.6387 177.295 61.1191V60.9287ZM181.528 61.2363C181.528 62.7402 181.812 63.8926 182.378 64.6934C182.944 65.4844 183.755 65.8799 184.81 65.8799C185.835 65.8799 186.636 65.4893 187.212 64.708C187.788 63.917 188.076 62.6572 188.076 60.9287C188.076 59.4541 187.788 58.3115 187.212 57.501C186.636 56.6904 185.825 56.2852 184.78 56.2852C183.745 56.2852 182.944 56.6904 182.378 57.501C181.812 58.3018 181.528 59.5469 181.528 61.2363ZM203.823 57.1201C203.247 57.042 202.739 57.0029 202.3 57.0029C200.698 57.0029 199.648 57.5449 199.15 58.6289V69H194.917V53.1504H198.916L199.033 55.04C199.883 53.585 201.06 52.8574 202.563 52.8574C203.032 52.8574 203.472 52.9209 203.882 53.0479L203.823 57.1201ZM209.844 53.1504L209.976 54.9229C211.099 53.5459 212.617 52.8574 214.531 52.8574C216.572 52.8574 217.974 53.6631 218.735 55.2744C219.849 53.6631 221.436 52.8574 223.496 52.8574C225.215 52.8574 226.494 53.3604 227.334 54.3662C228.174 55.3623 228.594 56.8662 228.594 58.8779V69H224.346V58.8926C224.346 57.9941 224.17 57.3398 223.818 56.9297C223.467 56.5098 222.847 56.2998 221.958 56.2998C220.688 56.2998 219.81 56.9053 219.321 58.1162L219.336 69H215.103V58.9072C215.103 57.9893 214.922 57.3252 214.561 56.915C214.199 56.5049 213.584 56.2998 212.715 56.2998C211.514 56.2998 210.645 56.7979 210.107 57.7939V69H205.874V53.1504H209.844ZM241.045 69C240.85 68.6191 240.708 68.1455 240.62 67.5791C239.595 68.7217 238.262 69.293 236.621 69.293C235.068 69.293 233.779 68.8438 232.754 67.9453C231.738 67.0469 231.23 65.9141 231.23 64.5469C231.23 62.8672 231.851 61.5781 233.091 60.6797C234.341 59.7812 236.143 59.3271 238.496 59.3174H240.444V58.4092C240.444 57.6768 240.254 57.0908 239.873 56.6514C239.502 56.2119 238.911 55.9922 238.101 55.9922C237.388 55.9922 236.826 56.1631 236.416 56.5049C236.016 56.8467 235.815 57.3154 235.815 57.9111H231.582C231.582 56.9932 231.865 56.1436 232.432 55.3623C232.998 54.5811 233.799 53.9707 234.834 53.5312C235.869 53.082 237.031 52.8574 238.32 52.8574C240.273 52.8574 241.821 53.3506 242.964 54.3369C244.116 55.3135 244.692 56.6904 244.692 58.4678V65.3379C244.702 66.8418 244.912 67.9795 245.322 68.751V69H241.045ZM237.544 66.0557C238.169 66.0557 238.745 65.9189 239.272 65.6455C239.8 65.3623 240.19 64.9863 240.444 64.5176V61.793H238.862C236.743 61.793 235.615 62.5254 235.479 63.9902L235.464 64.2393C235.464 64.7666 235.649 65.2012 236.021 65.543C236.392 65.8848 236.899 66.0557 237.544 66.0557ZM253.013 49.2539V53.1504H255.723V56.2559H253.013V64.166C253.013 64.752 253.125 65.1719 253.35 65.4258C253.574 65.6797 254.004 65.8066 254.639 65.8066C255.107 65.8066 255.522 65.7725 255.884 65.7041V68.9121C255.054 69.166 254.199 69.293 253.32 69.293C250.352 69.293 248.838 67.7939 248.779 64.7959V56.2559H246.465V53.1504H248.779V49.2539H253.013ZM262.549 69H258.301V53.1504H262.549V69ZM258.052 49.0488C258.052 48.4141 258.262 47.8916 258.682 47.4814C259.111 47.0713 259.692 46.8662 260.425 46.8662C261.147 46.8662 261.724 47.0713 262.153 47.4814C262.583 47.8916 262.798 48.4141 262.798 49.0488C262.798 49.6934 262.578 50.2207 262.139 50.6309C261.709 51.041 261.138 51.2461 260.425 51.2461C259.712 51.2461 259.136 51.041 258.696 50.6309C258.267 50.2207 258.052 49.6934 258.052 49.0488ZM265.391 60.9287C265.391 59.3564 265.693 57.9551 266.299 56.7246C266.904 55.4941 267.773 54.542 268.906 53.8682C270.049 53.1943 271.372 52.8574 272.876 52.8574C275.015 52.8574 276.758 53.5117 278.105 54.8203C279.463 56.1289 280.22 57.9062 280.376 60.1523L280.405 61.2363C280.405 63.668 279.727 65.6211 278.369 67.0957C277.012 68.5605 275.19 69.293 272.905 69.293C270.62 69.293 268.794 68.5605 267.427 67.0957C266.069 65.6309 265.391 63.6387 265.391 61.1191V60.9287ZM269.624 61.2363C269.624 62.7402 269.907 63.8926 270.474 64.6934C271.04 65.4844 271.851 65.8799 272.905 65.8799C273.931 65.8799 274.731 65.4893 275.308 64.708C275.884 63.917 276.172 62.6572 276.172 60.9287C276.172 59.4541 275.884 58.3115 275.308 57.501C274.731 56.6904 273.921 56.2852 272.876 56.2852C271.841 56.2852 271.04 56.6904 270.474 57.501C269.907 58.3018 269.624 59.5469 269.624 61.2363ZM286.909 53.1504L287.041 54.9814C288.174 53.5654 289.692 52.8574 291.597 52.8574C293.276 52.8574 294.526 53.3506 295.347 54.3369C296.167 55.3232 296.587 56.7979 296.606 58.7607V69H292.373V58.8633C292.373 57.9648 292.178 57.3154 291.787 56.915C291.396 56.5049 290.747 56.2998 289.839 56.2998C288.647 56.2998 287.754 56.8076 287.158 57.8232V69H282.925V53.1504H286.909ZM322.754 51.2314H316.221V69H311.826V51.2314H305.381V47.6719H322.754V51.2314ZM330.972 69.293C328.647 69.293 326.753 68.5801 325.288 67.1543C323.833 65.7285 323.105 63.8291 323.105 61.4561V61.0459C323.105 59.4541 323.413 58.0332 324.028 56.7832C324.644 55.5234 325.513 54.5566 326.636 53.8828C327.769 53.1992 329.058 52.8574 330.503 52.8574C332.671 52.8574 334.375 53.541 335.615 54.9082C336.865 56.2754 337.49 58.2139 337.49 60.7236V62.4521H327.397C327.534 63.4873 327.944 64.3174 328.628 64.9424C329.321 65.5674 330.195 65.8799 331.25 65.8799C332.881 65.8799 334.155 65.2891 335.073 64.1074L337.153 66.4365C336.519 67.335 335.659 68.0381 334.575 68.5459C333.491 69.0439 332.29 69.293 330.972 69.293ZM330.488 56.2852C329.648 56.2852 328.965 56.5684 328.438 57.1348C327.92 57.7012 327.588 58.5117 327.441 59.5664H333.33V59.2295C333.311 58.292 333.057 57.5693 332.568 57.0615C332.08 56.5439 331.387 56.2852 330.488 56.2852ZM346.499 65.8799C347.28 65.8799 347.915 65.665 348.403 65.2354C348.892 64.8057 349.146 64.2344 349.165 63.5215H353.135C353.125 64.5957 352.832 65.582 352.256 66.4805C351.68 67.3691 350.889 68.0625 349.883 68.5605C348.887 69.0488 347.783 69.293 346.572 69.293C344.307 69.293 342.52 68.5752 341.211 67.1396C339.902 65.6943 339.248 63.7021 339.248 61.1631V60.8848C339.248 58.4434 339.897 56.4951 341.196 55.04C342.495 53.585 344.277 52.8574 346.543 52.8574C348.525 52.8574 350.112 53.4238 351.304 54.5566C352.505 55.6797 353.115 57.1787 353.135 59.0537H349.165C349.146 58.2334 348.892 57.5693 348.403 57.0615C347.915 56.5439 347.271 56.2852 346.47 56.2852C345.483 56.2852 344.736 56.6465 344.229 57.3691C343.73 58.082 343.481 59.2441 343.481 60.8555V61.2949C343.481 62.9258 343.73 64.0977 344.229 64.8105C344.727 65.5234 345.483 65.8799 346.499 65.8799ZM359.683 54.8789C360.806 53.5312 362.217 52.8574 363.916 52.8574C367.354 52.8574 369.097 54.8545 369.146 58.8486V69H364.912V58.9658C364.912 58.0576 364.717 57.3887 364.326 56.959C363.936 56.5195 363.286 56.2998 362.378 56.2998C361.138 56.2998 360.239 56.7783 359.683 57.7354V69H355.449V46.5H359.683V54.8789ZM376.235 53.1504L376.367 54.9814C377.5 53.5654 379.019 52.8574 380.923 52.8574C382.603 52.8574 383.853 53.3506 384.673 54.3369C385.493 55.3232 385.913 56.7979 385.933 58.7607V69H381.699V58.8633C381.699 57.9648 381.504 57.3154 381.113 56.915C380.723 56.5049 380.073 56.2998 379.165 56.2998C377.974 56.2998 377.08 56.8076 376.484 57.8232V69H372.251V53.1504H376.235ZM388.496 60.9287C388.496 59.3564 388.799 57.9551 389.404 56.7246C390.01 55.4941 390.879 54.542 392.012 53.8682C393.154 53.1943 394.478 52.8574 395.981 52.8574C398.12 52.8574 399.863 53.5117 401.211 54.8203C402.568 56.1289 403.325 57.9062 403.481 60.1523L403.511 61.2363C403.511 63.668 402.832 65.6211 401.475 67.0957C400.117 68.5605 398.296 69.293 396.011 69.293C393.726 69.293 391.899 68.5605 390.532 67.0957C389.175 65.6309 388.496 63.6387 388.496 61.1191V60.9287ZM392.729 61.2363C392.729 62.7402 393.013 63.8926 393.579 64.6934C394.146 65.4844 394.956 65.8799 396.011 65.8799C397.036 65.8799 397.837 65.4893 398.413 64.708C398.989 63.917 399.277 62.6572 399.277 60.9287C399.277 59.4541 398.989 58.3115 398.413 57.501C397.837 56.6904 397.026 56.2852 395.981 56.2852C394.946 56.2852 394.146 56.6904 393.579 57.501C393.013 58.3018 392.729 59.5469 392.729 61.2363ZM410.586 69H406.338V46.5H410.586V69ZM413.428 60.9287C413.428 59.3564 413.73 57.9551 414.336 56.7246C414.941 55.4941 415.811 54.542 416.943 53.8682C418.086 53.1943 419.409 52.8574 420.913 52.8574C423.052 52.8574 424.795 53.5117 426.143 54.8203C427.5 56.1289 428.257 57.9062 428.413 60.1523L428.442 61.2363C428.442 63.668 427.764 65.6211 426.406 67.0957C425.049 68.5605 423.228 69.293 420.942 69.293C418.657 69.293 416.831 68.5605 415.464 67.0957C414.106 65.6309 413.428 63.6387 413.428 61.1191V60.9287ZM417.661 61.2363C417.661 62.7402 417.944 63.8926 418.511 64.6934C419.077 65.4844 419.888 65.8799 420.942 65.8799C421.968 65.8799 422.769 65.4893 423.345 64.708C423.921 63.917 424.209 62.6572 424.209 60.9287C424.209 59.4541 423.921 58.3115 423.345 57.501C422.769 56.6904 421.958 56.2852 420.913 56.2852C419.878 56.2852 419.077 56.6904 418.511 57.501C417.944 58.3018 417.661 59.5469 417.661 61.2363ZM430.435 60.958C430.435 58.5264 431.011 56.5684 432.163 55.084C433.325 53.5996 434.888 52.8574 436.851 52.8574C438.589 52.8574 439.941 53.4531 440.908 54.6445L441.084 53.1504H444.922V68.4727C444.922 69.8594 444.604 71.0654 443.97 72.0908C443.345 73.1162 442.461 73.8975 441.318 74.4346C440.176 74.9717 438.838 75.2402 437.305 75.2402C436.143 75.2402 435.01 75.0059 433.906 74.5371C432.803 74.0781 431.968 73.4824 431.401 72.75L433.276 70.1719C434.331 71.3535 435.61 71.9443 437.114 71.9443C438.237 71.9443 439.111 71.6416 439.736 71.0361C440.361 70.4404 440.674 69.5908 440.674 68.4873V67.6377C439.697 68.7412 438.413 69.293 436.821 69.293C434.917 69.293 433.374 68.5508 432.192 67.0664C431.021 65.5723 430.435 63.5947 430.435 61.1338V60.958ZM434.668 61.2656C434.668 62.7012 434.956 63.8291 435.532 64.6494C436.108 65.46 436.899 65.8652 437.905 65.8652C439.194 65.8652 440.117 65.3818 440.674 64.415V57.75C440.107 56.7832 439.194 56.2998 437.935 56.2998C436.919 56.2998 436.118 56.7148 435.532 57.5449C434.956 58.375 434.668 59.6152 434.668 61.2656ZM454.106 63.0088L457.036 53.1504H461.577L455.205 71.4609L454.854 72.2959C453.906 74.3662 452.344 75.4014 450.166 75.4014C449.551 75.4014 448.926 75.3086 448.291 75.123V71.915L448.936 71.9297C449.736 71.9297 450.332 71.8076 450.723 71.5635C451.123 71.3193 451.436 70.9141 451.66 70.3477L452.158 69.0439L446.606 53.1504H451.162L454.106 63.0088Z" fill="white"/>
<path d="M141.98 108V90.9375H146.797C148.281 90.9375 149.594 91.2656 150.734 91.9219C151.875 92.5781 152.754 93.5117 153.371 94.7227C153.996 95.9336 154.312 97.3242 154.32 98.8945V99.9844C154.32 101.594 154.008 103.004 153.383 104.215C152.766 105.426 151.879 106.355 150.723 107.004C149.574 107.652 148.234 107.984 146.703 108H141.98ZM144.23 92.7891V106.16H146.598C148.332 106.16 149.68 105.621 150.641 104.543C151.609 103.465 152.094 101.93 152.094 99.9375V98.9414C152.094 97.0039 151.637 95.5 150.723 94.4297C149.816 93.3516 148.527 92.8047 146.855 92.7891H144.23ZM162.652 108.234C160.934 108.234 159.535 107.672 158.457 106.547C157.379 105.414 156.84 103.902 156.84 102.012V101.613C156.84 100.355 157.078 99.2344 157.555 98.25C158.039 97.2578 158.711 96.4844 159.57 95.9297C160.438 95.3672 161.375 95.0859 162.383 95.0859C164.031 95.0859 165.312 95.6289 166.227 96.7148C167.141 97.8008 167.598 99.3555 167.598 101.379V102.281H159.008C159.039 103.531 159.402 104.543 160.098 105.316C160.801 106.082 161.691 106.465 162.77 106.465C163.535 106.465 164.184 106.309 164.715 105.996C165.246 105.684 165.711 105.27 166.109 104.754L167.434 105.785C166.371 107.418 164.777 108.234 162.652 108.234ZM162.383 96.8672C161.508 96.8672 160.773 97.1875 160.18 97.8281C159.586 98.4609 159.219 99.3516 159.078 100.5H165.43V100.336C165.367 99.2344 165.07 98.3828 164.539 97.7812C164.008 97.1719 163.289 96.8672 162.383 96.8672ZM180.828 101.801C180.828 103.73 180.387 105.285 179.504 106.465C178.621 107.645 177.426 108.234 175.918 108.234C174.379 108.234 173.168 107.746 172.285 106.77V112.875H170.117V95.3203H172.098L172.203 96.7266C173.086 95.6328 174.312 95.0859 175.883 95.0859C177.406 95.0859 178.609 95.6602 179.492 96.8086C180.383 97.957 180.828 99.5547 180.828 101.602V101.801ZM178.66 101.555C178.66 100.125 178.355 98.9961 177.746 98.168C177.137 97.3398 176.301 96.9258 175.238 96.9258C173.926 96.9258 172.941 97.5078 172.285 98.6719V104.73C172.934 105.887 173.926 106.465 175.262 106.465C176.301 106.465 177.125 106.055 177.734 105.234C178.352 104.406 178.66 103.18 178.66 101.555ZM191.422 108C191.297 107.75 191.195 107.305 191.117 106.664C190.109 107.711 188.906 108.234 187.508 108.234C186.258 108.234 185.23 107.883 184.426 107.18C183.629 106.469 183.23 105.57 183.23 104.484C183.23 103.164 183.73 102.141 184.73 101.414C185.738 100.68 187.152 100.312 188.973 100.312H191.082V99.3164C191.082 98.5586 190.855 97.957 190.402 97.5117C189.949 97.0586 189.281 96.832 188.398 96.832C187.625 96.832 186.977 97.0273 186.453 97.418C185.93 97.8086 185.668 98.2812 185.668 98.8359H183.488C183.488 98.2031 183.711 97.5938 184.156 97.0078C184.609 96.4141 185.219 95.9453 185.984 95.6016C186.758 95.2578 187.605 95.0859 188.527 95.0859C189.988 95.0859 191.133 95.4531 191.961 96.1875C192.789 96.9141 193.219 97.918 193.25 99.1992V105.035C193.25 106.199 193.398 107.125 193.695 107.812V108H191.422ZM187.824 106.348C188.504 106.348 189.148 106.172 189.758 105.82C190.367 105.469 190.809 105.012 191.082 104.449V101.848H189.383C186.727 101.848 185.398 102.625 185.398 104.18C185.398 104.859 185.625 105.391 186.078 105.773C186.531 106.156 187.113 106.348 187.824 106.348ZM202.777 97.2656C202.449 97.2109 202.094 97.1836 201.711 97.1836C200.289 97.1836 199.324 97.7891 198.816 99V108H196.648V95.3203H198.758L198.793 96.7852C199.504 95.6523 200.512 95.0859 201.816 95.0859C202.238 95.0859 202.559 95.1406 202.777 95.25V97.2656ZM208.309 92.25V95.3203H210.676V96.9961H208.309V104.859C208.309 105.367 208.414 105.75 208.625 106.008C208.836 106.258 209.195 106.383 209.703 106.383C209.953 106.383 210.297 106.336 210.734 106.242V108C210.164 108.156 209.609 108.234 209.07 108.234C208.102 108.234 207.371 107.941 206.879 107.355C206.387 106.77 206.141 105.938 206.141 104.859V96.9961H203.832V95.3203H206.141V92.25H208.309ZM215.258 95.3203L215.316 96.7266C216.246 95.6328 217.5 95.0859 219.078 95.0859C220.852 95.0859 222.059 95.7656 222.699 97.125C223.121 96.5156 223.668 96.0234 224.34 95.6484C225.02 95.2734 225.82 95.0859 226.742 95.0859C229.523 95.0859 230.938 96.5586 230.984 99.5039V108H228.816V99.6328C228.816 98.7266 228.609 98.0508 228.195 97.6055C227.781 97.1523 227.086 96.9258 226.109 96.9258C225.305 96.9258 224.637 97.168 224.105 97.6523C223.574 98.1289 223.266 98.7734 223.18 99.5859V108H221V99.6914C221 97.8477 220.098 96.9258 218.293 96.9258C216.871 96.9258 215.898 97.5312 215.375 98.7422V108H213.207V95.3203H215.258ZM239.527 108.234C237.809 108.234 236.41 107.672 235.332 106.547C234.254 105.414 233.715 103.902 233.715 102.012V101.613C233.715 100.355 233.953 99.2344 234.43 98.25C234.914 97.2578 235.586 96.4844 236.445 95.9297C237.312 95.3672 238.25 95.0859 239.258 95.0859C240.906 95.0859 242.188 95.6289 243.102 96.7148C244.016 97.8008 244.473 99.3555 244.473 101.379V102.281H235.883C235.914 103.531 236.277 104.543 236.973 105.316C237.676 106.082 238.566 106.465 239.645 106.465C240.41 106.465 241.059 106.309 241.59 105.996C242.121 105.684 242.586 105.27 242.984 104.754L244.309 105.785C243.246 107.418 241.652 108.234 239.527 108.234ZM239.258 96.8672C238.383 96.8672 237.648 97.1875 237.055 97.8281C236.461 98.4609 236.094 99.3516 235.953 100.5H242.305V100.336C242.242 99.2344 241.945 98.3828 241.414 97.7812C240.883 97.1719 240.164 96.8672 239.258 96.8672ZM249.043 95.3203L249.113 96.9141C250.082 95.6953 251.348 95.0859 252.91 95.0859C255.59 95.0859 256.941 96.5977 256.965 99.6211V108H254.797V99.6094C254.789 98.6953 254.578 98.0195 254.164 97.582C253.758 97.1445 253.121 96.9258 252.254 96.9258C251.551 96.9258 250.934 97.1133 250.402 97.4883C249.871 97.8633 249.457 98.3555 249.16 98.9648V108H246.992V95.3203H249.043ZM263.176 92.25V95.3203H265.543V96.9961H263.176V104.859C263.176 105.367 263.281 105.75 263.492 106.008C263.703 106.258 264.062 106.383 264.57 106.383C264.82 106.383 265.164 106.336 265.602 106.242V108C265.031 108.156 264.477 108.234 263.938 108.234C262.969 108.234 262.238 107.941 261.746 107.355C261.254 106.77 261.008 105.938 261.008 104.859V96.9961H258.699V95.3203H261.008V92.25H263.176Z" fill="white"/>
<defs>
<clipPath id="clip0_122_161">
<rect width="179" height="145" fill="white"/>
</clipPath>
</defs>
</svg>
