<svg width="24" height="24" viewBox="0 0 24 24" fill="none" xmlns="http://www.w3.org/2000/svg">
<path d="M12 9.6C15.9768 9.6 19.2 7.9884 19.2 6C19.2 4.0116 15.9768 2.4 12 2.4C8.02325 2.4 4.80005 4.0116 4.80005 6C4.80005 7.9884 8.02325 9.6 12 9.6ZM17.628 9.6192C18.192 9.3372 18.7404 8.9784 19.2 8.544V18C19.2 19.9884 15.9768 21.6 12 21.6C8.02325 21.6 4.80005 19.9884 4.80005 18V8.544C5.25965 8.9784 5.80805 9.3372 6.37205 9.6192C7.87445 10.3704 9.86645 10.8 12 10.8C14.1336 10.8 16.1256 10.3704 17.628 9.6192Z" fill="#1653A6"/>
<path d="M13.2329 16.6465C13.1802 17.0977 13.0132 17.4463 12.7319 17.6924C12.4526 17.9365 12.0806 18.0586 11.6157 18.0586C11.1118 18.0586 10.7075 17.8779 10.4028 17.5166C10.1001 17.1553 9.94873 16.6719 9.94873 16.0664V15.6562C9.94873 15.2598 10.019 14.9111 10.1597 14.6104C10.3022 14.3096 10.5034 14.0791 10.7632 13.9189C11.0229 13.7568 11.3237 13.6758 11.6655 13.6758C12.1187 13.6758 12.4819 13.8027 12.7554 14.0566C13.0288 14.3086 13.188 14.6582 13.2329 15.1055H12.6675C12.6187 14.7656 12.5122 14.5195 12.3481 14.3672C12.186 14.2148 11.9585 14.1387 11.6655 14.1387C11.3062 14.1387 11.0239 14.2715 10.8188 14.5371C10.6157 14.8027 10.5142 15.1807 10.5142 15.6709V16.084C10.5142 16.5469 10.6108 16.915 10.8042 17.1885C10.9976 17.4619 11.2681 17.5986 11.6157 17.5986C11.9282 17.5986 12.1675 17.5283 12.3335 17.3877C12.5015 17.2451 12.6128 16.998 12.6675 16.6465H13.2329Z" fill="white"/>
</svg>
